<mxfile host="app.diagrams.net" modified="2024-05-20T19:04:01.733Z" agent="Mozilla/5.0 (Windows NT 10.0; Win64; x64) AppleWebKit/537.36 (KHTML, like Gecko) Chrome/124.0.0.0 Safari/537.36" etag="EJ44ZQ_h5md1DxMy3Iru" version="24.4.4" type="device">
  <diagram id="R2lEEEUBdFMjLlhIrx00" name="Page-1">
    <mxGraphModel dx="3156" dy="3978" grid="1" gridSize="10" guides="1" tooltips="1" connect="1" arrows="1" fold="1" page="1" pageScale="1" pageWidth="850" pageHeight="1100" math="0" shadow="0" extFonts="Permanent Marker^https://fonts.googleapis.com/css?family=Permanent+Marker">
      <root>
        <mxCell id="0" />
        <mxCell id="1" parent="0" />
        <mxCell id="jcKHcT5dP_6uD75084We-1" value="user" style="shape=table;startSize=30;container=1;collapsible=1;childLayout=tableLayout;fixedRows=1;rowLines=0;fontStyle=1;align=center;resizeLast=1;" vertex="1" parent="1">
          <mxGeometry x="-1650" y="-3300" width="310" height="280" as="geometry" />
        </mxCell>
        <mxCell id="jcKHcT5dP_6uD75084We-2" value="" style="shape=tableRow;horizontal=0;startSize=0;swimlaneHead=0;swimlaneBody=0;fillColor=none;collapsible=0;dropTarget=0;points=[[0,0.5],[1,0.5]];portConstraint=eastwest;strokeColor=inherit;top=0;left=0;right=0;bottom=1;" vertex="1" parent="jcKHcT5dP_6uD75084We-1">
          <mxGeometry y="30" width="310" height="70" as="geometry" />
        </mxCell>
        <mxCell id="jcKHcT5dP_6uD75084We-3" value="PK" style="shape=partialRectangle;overflow=hidden;connectable=0;fillColor=none;strokeColor=inherit;top=0;left=0;bottom=0;right=0;fontStyle=1;" vertex="1" parent="jcKHcT5dP_6uD75084We-2">
          <mxGeometry width="30" height="70" as="geometry">
            <mxRectangle width="30" height="70" as="alternateBounds" />
          </mxGeometry>
        </mxCell>
        <mxCell id="jcKHcT5dP_6uD75084We-4" value="id int_unsigned NOT NULL AUTO_INCREMENT" style="shape=partialRectangle;overflow=hidden;connectable=0;fillColor=none;align=left;strokeColor=inherit;top=0;left=0;bottom=0;right=0;spacingLeft=6;fontStyle=5;" vertex="1" parent="jcKHcT5dP_6uD75084We-2">
          <mxGeometry x="30" width="280" height="70" as="geometry">
            <mxRectangle width="280" height="70" as="alternateBounds" />
          </mxGeometry>
        </mxCell>
        <mxCell id="jcKHcT5dP_6uD75084We-5" value="" style="shape=tableRow;horizontal=0;startSize=0;swimlaneHead=0;swimlaneBody=0;fillColor=none;collapsible=0;dropTarget=0;points=[[0,0.5],[1,0.5]];portConstraint=eastwest;strokeColor=inherit;top=0;left=0;right=0;bottom=0;" vertex="1" parent="jcKHcT5dP_6uD75084We-1">
          <mxGeometry y="100" width="310" height="30" as="geometry" />
        </mxCell>
        <mxCell id="jcKHcT5dP_6uD75084We-6" value="UK" style="shape=partialRectangle;overflow=hidden;connectable=0;fillColor=none;strokeColor=inherit;top=0;left=0;bottom=0;right=0;" vertex="1" parent="jcKHcT5dP_6uD75084We-5">
          <mxGeometry width="30" height="30" as="geometry">
            <mxRectangle width="30" height="30" as="alternateBounds" />
          </mxGeometry>
        </mxCell>
        <mxCell id="jcKHcT5dP_6uD75084We-7" value="e_mail varchar(30) NOT NULL UNIQUE" style="shape=partialRectangle;overflow=hidden;connectable=0;fillColor=none;align=left;strokeColor=inherit;top=0;left=0;bottom=0;right=0;spacingLeft=6;" vertex="1" parent="jcKHcT5dP_6uD75084We-5">
          <mxGeometry x="30" width="280" height="30" as="geometry">
            <mxRectangle width="280" height="30" as="alternateBounds" />
          </mxGeometry>
        </mxCell>
        <mxCell id="jcKHcT5dP_6uD75084We-8" value="" style="shape=tableRow;horizontal=0;startSize=0;swimlaneHead=0;swimlaneBody=0;fillColor=none;collapsible=0;dropTarget=0;points=[[0,0.5],[1,0.5]];portConstraint=eastwest;strokeColor=inherit;top=0;left=0;right=0;bottom=0;" vertex="1" parent="jcKHcT5dP_6uD75084We-1">
          <mxGeometry y="130" width="310" height="30" as="geometry" />
        </mxCell>
        <mxCell id="jcKHcT5dP_6uD75084We-9" value="" style="shape=partialRectangle;overflow=hidden;connectable=0;fillColor=none;strokeColor=inherit;top=0;left=0;bottom=0;right=0;" vertex="1" parent="jcKHcT5dP_6uD75084We-8">
          <mxGeometry width="30" height="30" as="geometry">
            <mxRectangle width="30" height="30" as="alternateBounds" />
          </mxGeometry>
        </mxCell>
        <mxCell id="jcKHcT5dP_6uD75084We-10" value="password varchar(30) NOT NULL " style="shape=partialRectangle;overflow=hidden;connectable=0;fillColor=none;align=left;strokeColor=inherit;top=0;left=0;bottom=0;right=0;spacingLeft=6;" vertex="1" parent="jcKHcT5dP_6uD75084We-8">
          <mxGeometry x="30" width="280" height="30" as="geometry">
            <mxRectangle width="280" height="30" as="alternateBounds" />
          </mxGeometry>
        </mxCell>
        <mxCell id="jcKHcT5dP_6uD75084We-11" value="" style="shape=tableRow;horizontal=0;startSize=0;swimlaneHead=0;swimlaneBody=0;fillColor=none;collapsible=0;dropTarget=0;points=[[0,0.5],[1,0.5]];portConstraint=eastwest;strokeColor=inherit;top=0;left=0;right=0;bottom=0;" vertex="1" parent="jcKHcT5dP_6uD75084We-1">
          <mxGeometry y="160" width="310" height="30" as="geometry" />
        </mxCell>
        <mxCell id="jcKHcT5dP_6uD75084We-12" value="UK" style="shape=partialRectangle;overflow=hidden;connectable=0;fillColor=none;strokeColor=inherit;top=0;left=0;bottom=0;right=0;" vertex="1" parent="jcKHcT5dP_6uD75084We-11">
          <mxGeometry width="30" height="30" as="geometry">
            <mxRectangle width="30" height="30" as="alternateBounds" />
          </mxGeometry>
        </mxCell>
        <mxCell id="jcKHcT5dP_6uD75084We-13" value="nickname varchar(30) NOT NULL UNIQUE" style="shape=partialRectangle;overflow=hidden;connectable=0;fillColor=none;align=left;strokeColor=inherit;top=0;left=0;bottom=0;right=0;spacingLeft=6;" vertex="1" parent="jcKHcT5dP_6uD75084We-11">
          <mxGeometry x="30" width="280" height="30" as="geometry">
            <mxRectangle width="280" height="30" as="alternateBounds" />
          </mxGeometry>
        </mxCell>
        <mxCell id="jcKHcT5dP_6uD75084We-14" value="" style="shape=tableRow;horizontal=0;startSize=0;swimlaneHead=0;swimlaneBody=0;fillColor=none;collapsible=0;dropTarget=0;points=[[0,0.5],[1,0.5]];portConstraint=eastwest;strokeColor=inherit;top=0;left=0;right=0;bottom=0;" vertex="1" parent="jcKHcT5dP_6uD75084We-1">
          <mxGeometry y="190" width="310" height="30" as="geometry" />
        </mxCell>
        <mxCell id="jcKHcT5dP_6uD75084We-15" value="" style="shape=partialRectangle;overflow=hidden;connectable=0;fillColor=none;strokeColor=inherit;top=0;left=0;bottom=0;right=0;" vertex="1" parent="jcKHcT5dP_6uD75084We-14">
          <mxGeometry width="30" height="30" as="geometry">
            <mxRectangle width="30" height="30" as="alternateBounds" />
          </mxGeometry>
        </mxCell>
        <mxCell id="jcKHcT5dP_6uD75084We-16" value="created_at datetime NOT NULL" style="shape=partialRectangle;overflow=hidden;connectable=0;fillColor=none;align=left;strokeColor=inherit;top=0;left=0;bottom=0;right=0;spacingLeft=6;" vertex="1" parent="jcKHcT5dP_6uD75084We-14">
          <mxGeometry x="30" width="280" height="30" as="geometry">
            <mxRectangle width="280" height="30" as="alternateBounds" />
          </mxGeometry>
        </mxCell>
        <mxCell id="jcKHcT5dP_6uD75084We-17" value="" style="shape=tableRow;horizontal=0;startSize=0;swimlaneHead=0;swimlaneBody=0;fillColor=none;collapsible=0;dropTarget=0;points=[[0,0.5],[1,0.5]];portConstraint=eastwest;strokeColor=inherit;top=0;left=0;right=0;bottom=0;" vertex="1" parent="jcKHcT5dP_6uD75084We-1">
          <mxGeometry y="220" width="310" height="30" as="geometry" />
        </mxCell>
        <mxCell id="jcKHcT5dP_6uD75084We-18" value="" style="shape=partialRectangle;overflow=hidden;connectable=0;fillColor=none;strokeColor=inherit;top=0;left=0;bottom=0;right=0;" vertex="1" parent="jcKHcT5dP_6uD75084We-17">
          <mxGeometry width="30" height="30" as="geometry">
            <mxRectangle width="30" height="30" as="alternateBounds" />
          </mxGeometry>
        </mxCell>
        <mxCell id="jcKHcT5dP_6uD75084We-19" value="modified_at datetime NOT NULL" style="shape=partialRectangle;overflow=hidden;connectable=0;fillColor=none;align=left;strokeColor=inherit;top=0;left=0;bottom=0;right=0;spacingLeft=6;" vertex="1" parent="jcKHcT5dP_6uD75084We-17">
          <mxGeometry x="30" width="280" height="30" as="geometry">
            <mxRectangle width="280" height="30" as="alternateBounds" />
          </mxGeometry>
        </mxCell>
        <mxCell id="jcKHcT5dP_6uD75084We-57" value="" style="shape=tableRow;horizontal=0;startSize=0;swimlaneHead=0;swimlaneBody=0;fillColor=none;collapsible=0;dropTarget=0;points=[[0,0.5],[1,0.5]];portConstraint=eastwest;strokeColor=inherit;top=0;left=0;right=0;bottom=0;" vertex="1" parent="jcKHcT5dP_6uD75084We-1">
          <mxGeometry y="250" width="310" height="30" as="geometry" />
        </mxCell>
        <mxCell id="jcKHcT5dP_6uD75084We-58" value="" style="shape=partialRectangle;overflow=hidden;connectable=0;fillColor=none;strokeColor=inherit;top=0;left=0;bottom=0;right=0;" vertex="1" parent="jcKHcT5dP_6uD75084We-57">
          <mxGeometry width="30" height="30" as="geometry">
            <mxRectangle width="30" height="30" as="alternateBounds" />
          </mxGeometry>
        </mxCell>
        <mxCell id="jcKHcT5dP_6uD75084We-59" value="deleted_at datetime " style="shape=partialRectangle;overflow=hidden;connectable=0;fillColor=none;align=left;strokeColor=inherit;top=0;left=0;bottom=0;right=0;spacingLeft=6;" vertex="1" parent="jcKHcT5dP_6uD75084We-57">
          <mxGeometry x="30" width="280" height="30" as="geometry">
            <mxRectangle width="280" height="30" as="alternateBounds" />
          </mxGeometry>
        </mxCell>
        <mxCell id="jcKHcT5dP_6uD75084We-83" value="recomments" style="shape=table;startSize=30;container=1;collapsible=1;childLayout=tableLayout;fixedRows=1;rowLines=0;fontStyle=1;align=center;resizeLast=1;" vertex="1" parent="1">
          <mxGeometry x="-760" y="-2980" width="310" height="240" as="geometry" />
        </mxCell>
        <mxCell id="jcKHcT5dP_6uD75084We-84" value="" style="shape=tableRow;horizontal=0;startSize=0;swimlaneHead=0;swimlaneBody=0;fillColor=none;collapsible=0;dropTarget=0;points=[[0,0.5],[1,0.5]];portConstraint=eastwest;strokeColor=inherit;top=0;left=0;right=0;bottom=1;" vertex="1" parent="jcKHcT5dP_6uD75084We-83">
          <mxGeometry y="30" width="310" height="30" as="geometry" />
        </mxCell>
        <mxCell id="jcKHcT5dP_6uD75084We-85" value="PK" style="shape=partialRectangle;overflow=hidden;connectable=0;fillColor=none;strokeColor=inherit;top=0;left=0;bottom=0;right=0;fontStyle=1;" vertex="1" parent="jcKHcT5dP_6uD75084We-84">
          <mxGeometry width="30.000000000000227" height="30" as="geometry">
            <mxRectangle width="30.000000000000227" height="30" as="alternateBounds" />
          </mxGeometry>
        </mxCell>
        <mxCell id="jcKHcT5dP_6uD75084We-86" value="id int_unsigned NOT NULL AUTO_INCREMENT" style="shape=partialRectangle;overflow=hidden;connectable=0;fillColor=none;align=left;strokeColor=inherit;top=0;left=0;bottom=0;right=0;spacingLeft=6;fontStyle=5;" vertex="1" parent="jcKHcT5dP_6uD75084We-84">
          <mxGeometry x="30.000000000000227" width="279.9999999999998" height="30" as="geometry">
            <mxRectangle width="279.9999999999998" height="30" as="alternateBounds" />
          </mxGeometry>
        </mxCell>
        <mxCell id="jcKHcT5dP_6uD75084We-87" value="" style="shape=tableRow;horizontal=0;startSize=0;swimlaneHead=0;swimlaneBody=0;fillColor=none;collapsible=0;dropTarget=0;points=[[0,0.5],[1,0.5]];portConstraint=eastwest;strokeColor=inherit;top=0;left=0;right=0;bottom=0;" vertex="1" parent="jcKHcT5dP_6uD75084We-83">
          <mxGeometry y="60" width="310" height="30" as="geometry" />
        </mxCell>
        <mxCell id="jcKHcT5dP_6uD75084We-88" value="FK" style="shape=partialRectangle;overflow=hidden;connectable=0;fillColor=none;strokeColor=inherit;top=0;left=0;bottom=0;right=0;" vertex="1" parent="jcKHcT5dP_6uD75084We-87">
          <mxGeometry width="30.000000000000227" height="30" as="geometry">
            <mxRectangle width="30.000000000000227" height="30" as="alternateBounds" />
          </mxGeometry>
        </mxCell>
        <mxCell id="jcKHcT5dP_6uD75084We-89" value="user_id int unsigned NOT NULL" style="shape=partialRectangle;overflow=hidden;connectable=0;fillColor=none;align=left;strokeColor=inherit;top=0;left=0;bottom=0;right=0;spacingLeft=6;" vertex="1" parent="jcKHcT5dP_6uD75084We-87">
          <mxGeometry x="30.000000000000227" width="279.9999999999998" height="30" as="geometry">
            <mxRectangle width="279.9999999999998" height="30" as="alternateBounds" />
          </mxGeometry>
        </mxCell>
        <mxCell id="jcKHcT5dP_6uD75084We-90" value="" style="shape=tableRow;horizontal=0;startSize=0;swimlaneHead=0;swimlaneBody=0;fillColor=none;collapsible=0;dropTarget=0;points=[[0,0.5],[1,0.5]];portConstraint=eastwest;strokeColor=inherit;top=0;left=0;right=0;bottom=0;" vertex="1" parent="jcKHcT5dP_6uD75084We-83">
          <mxGeometry y="90" width="310" height="30" as="geometry" />
        </mxCell>
        <mxCell id="jcKHcT5dP_6uD75084We-91" value="FK" style="shape=partialRectangle;overflow=hidden;connectable=0;fillColor=none;strokeColor=inherit;top=0;left=0;bottom=0;right=0;" vertex="1" parent="jcKHcT5dP_6uD75084We-90">
          <mxGeometry width="30.000000000000227" height="30" as="geometry">
            <mxRectangle width="30.000000000000227" height="30" as="alternateBounds" />
          </mxGeometry>
        </mxCell>
        <mxCell id="jcKHcT5dP_6uD75084We-92" value="room_id int unsigned NOT NULL" style="shape=partialRectangle;overflow=hidden;connectable=0;fillColor=none;align=left;strokeColor=inherit;top=0;left=0;bottom=0;right=0;spacingLeft=6;" vertex="1" parent="jcKHcT5dP_6uD75084We-90">
          <mxGeometry x="30.000000000000227" width="279.9999999999998" height="30" as="geometry">
            <mxRectangle width="279.9999999999998" height="30" as="alternateBounds" />
          </mxGeometry>
        </mxCell>
        <mxCell id="jcKHcT5dP_6uD75084We-93" value="" style="shape=tableRow;horizontal=0;startSize=0;swimlaneHead=0;swimlaneBody=0;fillColor=none;collapsible=0;dropTarget=0;points=[[0,0.5],[1,0.5]];portConstraint=eastwest;strokeColor=inherit;top=0;left=0;right=0;bottom=0;" vertex="1" parent="jcKHcT5dP_6uD75084We-83">
          <mxGeometry y="120" width="310" height="30" as="geometry" />
        </mxCell>
        <mxCell id="jcKHcT5dP_6uD75084We-94" value="" style="shape=partialRectangle;overflow=hidden;connectable=0;fillColor=none;strokeColor=inherit;top=0;left=0;bottom=0;right=0;" vertex="1" parent="jcKHcT5dP_6uD75084We-93">
          <mxGeometry width="30.000000000000227" height="30" as="geometry">
            <mxRectangle width="30.000000000000227" height="30" as="alternateBounds" />
          </mxGeometry>
        </mxCell>
        <mxCell id="jcKHcT5dP_6uD75084We-95" value="re_title varchar(50) NOT NULL" style="shape=partialRectangle;overflow=hidden;connectable=0;fillColor=none;align=left;strokeColor=inherit;top=0;left=0;bottom=0;right=0;spacingLeft=6;" vertex="1" parent="jcKHcT5dP_6uD75084We-93">
          <mxGeometry x="30.000000000000227" width="279.9999999999998" height="30" as="geometry">
            <mxRectangle width="279.9999999999998" height="30" as="alternateBounds" />
          </mxGeometry>
        </mxCell>
        <mxCell id="jcKHcT5dP_6uD75084We-96" value="" style="shape=tableRow;horizontal=0;startSize=0;swimlaneHead=0;swimlaneBody=0;fillColor=none;collapsible=0;dropTarget=0;points=[[0,0.5],[1,0.5]];portConstraint=eastwest;strokeColor=inherit;top=0;left=0;right=0;bottom=0;" vertex="1" parent="jcKHcT5dP_6uD75084We-83">
          <mxGeometry y="150" width="310" height="30" as="geometry" />
        </mxCell>
        <mxCell id="jcKHcT5dP_6uD75084We-97" value="" style="shape=partialRectangle;overflow=hidden;connectable=0;fillColor=none;strokeColor=inherit;top=0;left=0;bottom=0;right=0;" vertex="1" parent="jcKHcT5dP_6uD75084We-96">
          <mxGeometry width="30.000000000000227" height="30" as="geometry">
            <mxRectangle width="30.000000000000227" height="30" as="alternateBounds" />
          </mxGeometry>
        </mxCell>
        <mxCell id="jcKHcT5dP_6uD75084We-98" value="created_at datetime NOT NULL" style="shape=partialRectangle;overflow=hidden;connectable=0;fillColor=none;align=left;strokeColor=inherit;top=0;left=0;bottom=0;right=0;spacingLeft=6;" vertex="1" parent="jcKHcT5dP_6uD75084We-96">
          <mxGeometry x="30.000000000000227" width="279.9999999999998" height="30" as="geometry">
            <mxRectangle width="279.9999999999998" height="30" as="alternateBounds" />
          </mxGeometry>
        </mxCell>
        <mxCell id="jcKHcT5dP_6uD75084We-99" value="" style="shape=tableRow;horizontal=0;startSize=0;swimlaneHead=0;swimlaneBody=0;fillColor=none;collapsible=0;dropTarget=0;points=[[0,0.5],[1,0.5]];portConstraint=eastwest;strokeColor=inherit;top=0;left=0;right=0;bottom=0;" vertex="1" parent="jcKHcT5dP_6uD75084We-83">
          <mxGeometry y="180" width="310" height="30" as="geometry" />
        </mxCell>
        <mxCell id="jcKHcT5dP_6uD75084We-100" value="" style="shape=partialRectangle;overflow=hidden;connectable=0;fillColor=none;strokeColor=inherit;top=0;left=0;bottom=0;right=0;" vertex="1" parent="jcKHcT5dP_6uD75084We-99">
          <mxGeometry width="30.000000000000227" height="30" as="geometry">
            <mxRectangle width="30.000000000000227" height="30" as="alternateBounds" />
          </mxGeometry>
        </mxCell>
        <mxCell id="jcKHcT5dP_6uD75084We-101" value="modified_at datetime NOT NULL" style="shape=partialRectangle;overflow=hidden;connectable=0;fillColor=none;align=left;strokeColor=inherit;top=0;left=0;bottom=0;right=0;spacingLeft=6;" vertex="1" parent="jcKHcT5dP_6uD75084We-99">
          <mxGeometry x="30.000000000000227" width="279.9999999999998" height="30" as="geometry">
            <mxRectangle width="279.9999999999998" height="30" as="alternateBounds" />
          </mxGeometry>
        </mxCell>
        <mxCell id="jcKHcT5dP_6uD75084We-102" value="" style="shape=tableRow;horizontal=0;startSize=0;swimlaneHead=0;swimlaneBody=0;fillColor=none;collapsible=0;dropTarget=0;points=[[0,0.5],[1,0.5]];portConstraint=eastwest;strokeColor=inherit;top=0;left=0;right=0;bottom=0;" vertex="1" parent="jcKHcT5dP_6uD75084We-83">
          <mxGeometry y="210" width="310" height="30" as="geometry" />
        </mxCell>
        <mxCell id="jcKHcT5dP_6uD75084We-103" value="" style="shape=partialRectangle;overflow=hidden;connectable=0;fillColor=none;strokeColor=inherit;top=0;left=0;bottom=0;right=0;" vertex="1" parent="jcKHcT5dP_6uD75084We-102">
          <mxGeometry width="30.000000000000227" height="30" as="geometry">
            <mxRectangle width="30.000000000000227" height="30" as="alternateBounds" />
          </mxGeometry>
        </mxCell>
        <mxCell id="jcKHcT5dP_6uD75084We-104" value="deleted_at datetime " style="shape=partialRectangle;overflow=hidden;connectable=0;fillColor=none;align=left;strokeColor=inherit;top=0;left=0;bottom=0;right=0;spacingLeft=6;" vertex="1" parent="jcKHcT5dP_6uD75084We-102">
          <mxGeometry x="30.000000000000227" width="279.9999999999998" height="30" as="geometry">
            <mxRectangle width="279.9999999999998" height="30" as="alternateBounds" />
          </mxGeometry>
        </mxCell>
        <mxCell id="jcKHcT5dP_6uD75084We-108" value="replys" style="shape=table;startSize=30;container=1;collapsible=1;childLayout=tableLayout;fixedRows=1;rowLines=0;fontStyle=1;align=center;resizeLast=1;" vertex="1" parent="1">
          <mxGeometry x="-630" y="-2675" width="310" height="240" as="geometry" />
        </mxCell>
        <mxCell id="jcKHcT5dP_6uD75084We-109" value="" style="shape=tableRow;horizontal=0;startSize=0;swimlaneHead=0;swimlaneBody=0;fillColor=none;collapsible=0;dropTarget=0;points=[[0,0.5],[1,0.5]];portConstraint=eastwest;strokeColor=inherit;top=0;left=0;right=0;bottom=1;" vertex="1" parent="jcKHcT5dP_6uD75084We-108">
          <mxGeometry y="30" width="310" height="30" as="geometry" />
        </mxCell>
        <mxCell id="jcKHcT5dP_6uD75084We-110" value="PK" style="shape=partialRectangle;overflow=hidden;connectable=0;fillColor=none;strokeColor=inherit;top=0;left=0;bottom=0;right=0;fontStyle=1;" vertex="1" parent="jcKHcT5dP_6uD75084We-109">
          <mxGeometry width="30.000000000000227" height="30" as="geometry">
            <mxRectangle width="30.000000000000227" height="30" as="alternateBounds" />
          </mxGeometry>
        </mxCell>
        <mxCell id="jcKHcT5dP_6uD75084We-111" value="id int_unsigned NOT NULL AUTO_INCREMENT" style="shape=partialRectangle;overflow=hidden;connectable=0;fillColor=none;align=left;strokeColor=inherit;top=0;left=0;bottom=0;right=0;spacingLeft=6;fontStyle=5;" vertex="1" parent="jcKHcT5dP_6uD75084We-109">
          <mxGeometry x="30.000000000000227" width="279.9999999999998" height="30" as="geometry">
            <mxRectangle width="279.9999999999998" height="30" as="alternateBounds" />
          </mxGeometry>
        </mxCell>
        <mxCell id="jcKHcT5dP_6uD75084We-112" value="" style="shape=tableRow;horizontal=0;startSize=0;swimlaneHead=0;swimlaneBody=0;fillColor=none;collapsible=0;dropTarget=0;points=[[0,0.5],[1,0.5]];portConstraint=eastwest;strokeColor=inherit;top=0;left=0;right=0;bottom=0;" vertex="1" parent="jcKHcT5dP_6uD75084We-108">
          <mxGeometry y="60" width="310" height="30" as="geometry" />
        </mxCell>
        <mxCell id="jcKHcT5dP_6uD75084We-113" value="FK" style="shape=partialRectangle;overflow=hidden;connectable=0;fillColor=none;strokeColor=inherit;top=0;left=0;bottom=0;right=0;" vertex="1" parent="jcKHcT5dP_6uD75084We-112">
          <mxGeometry width="30.000000000000227" height="30" as="geometry">
            <mxRectangle width="30.000000000000227" height="30" as="alternateBounds" />
          </mxGeometry>
        </mxCell>
        <mxCell id="jcKHcT5dP_6uD75084We-114" value="user_id int unsigned NOT NULL" style="shape=partialRectangle;overflow=hidden;connectable=0;fillColor=none;align=left;strokeColor=inherit;top=0;left=0;bottom=0;right=0;spacingLeft=6;" vertex="1" parent="jcKHcT5dP_6uD75084We-112">
          <mxGeometry x="30.000000000000227" width="279.9999999999998" height="30" as="geometry">
            <mxRectangle width="279.9999999999998" height="30" as="alternateBounds" />
          </mxGeometry>
        </mxCell>
        <mxCell id="jcKHcT5dP_6uD75084We-115" value="" style="shape=tableRow;horizontal=0;startSize=0;swimlaneHead=0;swimlaneBody=0;fillColor=none;collapsible=0;dropTarget=0;points=[[0,0.5],[1,0.5]];portConstraint=eastwest;strokeColor=inherit;top=0;left=0;right=0;bottom=0;" vertex="1" parent="jcKHcT5dP_6uD75084We-108">
          <mxGeometry y="90" width="310" height="30" as="geometry" />
        </mxCell>
        <mxCell id="jcKHcT5dP_6uD75084We-116" value="FK" style="shape=partialRectangle;overflow=hidden;connectable=0;fillColor=none;strokeColor=inherit;top=0;left=0;bottom=0;right=0;" vertex="1" parent="jcKHcT5dP_6uD75084We-115">
          <mxGeometry width="30.000000000000227" height="30" as="geometry">
            <mxRectangle width="30.000000000000227" height="30" as="alternateBounds" />
          </mxGeometry>
        </mxCell>
        <mxCell id="jcKHcT5dP_6uD75084We-117" value="recomment_id int unsigned NOT NULL" style="shape=partialRectangle;overflow=hidden;connectable=0;fillColor=none;align=left;strokeColor=inherit;top=0;left=0;bottom=0;right=0;spacingLeft=6;" vertex="1" parent="jcKHcT5dP_6uD75084We-115">
          <mxGeometry x="30.000000000000227" width="279.9999999999998" height="30" as="geometry">
            <mxRectangle width="279.9999999999998" height="30" as="alternateBounds" />
          </mxGeometry>
        </mxCell>
        <mxCell id="jcKHcT5dP_6uD75084We-118" value="" style="shape=tableRow;horizontal=0;startSize=0;swimlaneHead=0;swimlaneBody=0;fillColor=none;collapsible=0;dropTarget=0;points=[[0,0.5],[1,0.5]];portConstraint=eastwest;strokeColor=inherit;top=0;left=0;right=0;bottom=0;" vertex="1" parent="jcKHcT5dP_6uD75084We-108">
          <mxGeometry y="120" width="310" height="30" as="geometry" />
        </mxCell>
        <mxCell id="jcKHcT5dP_6uD75084We-119" value="" style="shape=partialRectangle;overflow=hidden;connectable=0;fillColor=none;strokeColor=inherit;top=0;left=0;bottom=0;right=0;" vertex="1" parent="jcKHcT5dP_6uD75084We-118">
          <mxGeometry width="30.000000000000227" height="30" as="geometry">
            <mxRectangle width="30.000000000000227" height="30" as="alternateBounds" />
          </mxGeometry>
        </mxCell>
        <mxCell id="jcKHcT5dP_6uD75084We-120" value="reply text NULL" style="shape=partialRectangle;overflow=hidden;connectable=0;fillColor=none;align=left;strokeColor=inherit;top=0;left=0;bottom=0;right=0;spacingLeft=6;" vertex="1" parent="jcKHcT5dP_6uD75084We-118">
          <mxGeometry x="30.000000000000227" width="279.9999999999998" height="30" as="geometry">
            <mxRectangle width="279.9999999999998" height="30" as="alternateBounds" />
          </mxGeometry>
        </mxCell>
        <mxCell id="jcKHcT5dP_6uD75084We-121" value="" style="shape=tableRow;horizontal=0;startSize=0;swimlaneHead=0;swimlaneBody=0;fillColor=none;collapsible=0;dropTarget=0;points=[[0,0.5],[1,0.5]];portConstraint=eastwest;strokeColor=inherit;top=0;left=0;right=0;bottom=0;" vertex="1" parent="jcKHcT5dP_6uD75084We-108">
          <mxGeometry y="150" width="310" height="30" as="geometry" />
        </mxCell>
        <mxCell id="jcKHcT5dP_6uD75084We-122" value="" style="shape=partialRectangle;overflow=hidden;connectable=0;fillColor=none;strokeColor=inherit;top=0;left=0;bottom=0;right=0;" vertex="1" parent="jcKHcT5dP_6uD75084We-121">
          <mxGeometry width="30.000000000000227" height="30" as="geometry">
            <mxRectangle width="30.000000000000227" height="30" as="alternateBounds" />
          </mxGeometry>
        </mxCell>
        <mxCell id="jcKHcT5dP_6uD75084We-123" value="created_at datetime NOT NULL" style="shape=partialRectangle;overflow=hidden;connectable=0;fillColor=none;align=left;strokeColor=inherit;top=0;left=0;bottom=0;right=0;spacingLeft=6;" vertex="1" parent="jcKHcT5dP_6uD75084We-121">
          <mxGeometry x="30.000000000000227" width="279.9999999999998" height="30" as="geometry">
            <mxRectangle width="279.9999999999998" height="30" as="alternateBounds" />
          </mxGeometry>
        </mxCell>
        <mxCell id="jcKHcT5dP_6uD75084We-124" value="" style="shape=tableRow;horizontal=0;startSize=0;swimlaneHead=0;swimlaneBody=0;fillColor=none;collapsible=0;dropTarget=0;points=[[0,0.5],[1,0.5]];portConstraint=eastwest;strokeColor=inherit;top=0;left=0;right=0;bottom=0;" vertex="1" parent="jcKHcT5dP_6uD75084We-108">
          <mxGeometry y="180" width="310" height="30" as="geometry" />
        </mxCell>
        <mxCell id="jcKHcT5dP_6uD75084We-125" value="" style="shape=partialRectangle;overflow=hidden;connectable=0;fillColor=none;strokeColor=inherit;top=0;left=0;bottom=0;right=0;" vertex="1" parent="jcKHcT5dP_6uD75084We-124">
          <mxGeometry width="30.000000000000227" height="30" as="geometry">
            <mxRectangle width="30.000000000000227" height="30" as="alternateBounds" />
          </mxGeometry>
        </mxCell>
        <mxCell id="jcKHcT5dP_6uD75084We-126" value="modified_at datetime NOT NULL" style="shape=partialRectangle;overflow=hidden;connectable=0;fillColor=none;align=left;strokeColor=inherit;top=0;left=0;bottom=0;right=0;spacingLeft=6;" vertex="1" parent="jcKHcT5dP_6uD75084We-124">
          <mxGeometry x="30.000000000000227" width="279.9999999999998" height="30" as="geometry">
            <mxRectangle width="279.9999999999998" height="30" as="alternateBounds" />
          </mxGeometry>
        </mxCell>
        <mxCell id="jcKHcT5dP_6uD75084We-127" value="" style="shape=tableRow;horizontal=0;startSize=0;swimlaneHead=0;swimlaneBody=0;fillColor=none;collapsible=0;dropTarget=0;points=[[0,0.5],[1,0.5]];portConstraint=eastwest;strokeColor=inherit;top=0;left=0;right=0;bottom=0;" vertex="1" parent="jcKHcT5dP_6uD75084We-108">
          <mxGeometry y="210" width="310" height="30" as="geometry" />
        </mxCell>
        <mxCell id="jcKHcT5dP_6uD75084We-128" value="" style="shape=partialRectangle;overflow=hidden;connectable=0;fillColor=none;strokeColor=inherit;top=0;left=0;bottom=0;right=0;" vertex="1" parent="jcKHcT5dP_6uD75084We-127">
          <mxGeometry width="30.000000000000227" height="30" as="geometry">
            <mxRectangle width="30.000000000000227" height="30" as="alternateBounds" />
          </mxGeometry>
        </mxCell>
        <mxCell id="jcKHcT5dP_6uD75084We-129" value="deleted_at datetime " style="shape=partialRectangle;overflow=hidden;connectable=0;fillColor=none;align=left;strokeColor=inherit;top=0;left=0;bottom=0;right=0;spacingLeft=6;" vertex="1" parent="jcKHcT5dP_6uD75084We-127">
          <mxGeometry x="30.000000000000227" width="279.9999999999998" height="30" as="geometry">
            <mxRectangle width="279.9999999999998" height="30" as="alternateBounds" />
          </mxGeometry>
        </mxCell>
        <mxCell id="jcKHcT5dP_6uD75084We-130" value="" style="edgeStyle=entityRelationEdgeStyle;fontSize=12;html=1;endArrow=ERoneToMany;startArrow=ERmandOne;rounded=0;exitX=1;exitY=0.5;exitDx=0;exitDy=0;" edge="1" parent="1" source="jcKHcT5dP_6uD75084We-84" target="jcKHcT5dP_6uD75084We-115">
          <mxGeometry width="100" height="100" relative="1" as="geometry">
            <mxPoint x="-1080" y="-2650" as="sourcePoint" />
            <mxPoint x="-1030" y="-2570" as="targetPoint" />
            <Array as="points">
              <mxPoint x="-930" y="-2920" />
              <mxPoint x="-430" y="-2750" />
              <mxPoint x="-930" y="-2770" />
            </Array>
          </mxGeometry>
        </mxCell>
        <mxCell id="jcKHcT5dP_6uD75084We-132" value="" style="edgeStyle=entityRelationEdgeStyle;fontSize=12;html=1;endArrow=ERoneToMany;startArrow=ERmandOne;rounded=0;exitX=1;exitY=0.5;exitDx=0;exitDy=0;" edge="1" parent="1" source="jcKHcT5dP_6uD75084We-61" target="jcKHcT5dP_6uD75084We-90">
          <mxGeometry width="100" height="100" relative="1" as="geometry">
            <mxPoint x="-1100" y="-3250" as="sourcePoint" />
            <mxPoint x="-1170" y="-2900" as="targetPoint" />
          </mxGeometry>
        </mxCell>
        <mxCell id="jcKHcT5dP_6uD75084We-137" value="admin" style="shape=table;startSize=30;container=1;collapsible=1;childLayout=tableLayout;fixedRows=1;rowLines=0;fontStyle=1;align=center;resizeLast=1;" vertex="1" parent="1">
          <mxGeometry x="-1650" y="-2990" width="310" height="240" as="geometry" />
        </mxCell>
        <mxCell id="jcKHcT5dP_6uD75084We-138" value="" style="shape=tableRow;horizontal=0;startSize=0;swimlaneHead=0;swimlaneBody=0;fillColor=none;collapsible=0;dropTarget=0;points=[[0,0.5],[1,0.5]];portConstraint=eastwest;strokeColor=inherit;top=0;left=0;right=0;bottom=1;" vertex="1" parent="jcKHcT5dP_6uD75084We-137">
          <mxGeometry y="30" width="310" height="30" as="geometry" />
        </mxCell>
        <mxCell id="jcKHcT5dP_6uD75084We-139" value="PK" style="shape=partialRectangle;overflow=hidden;connectable=0;fillColor=none;strokeColor=inherit;top=0;left=0;bottom=0;right=0;fontStyle=1;" vertex="1" parent="jcKHcT5dP_6uD75084We-138">
          <mxGeometry width="30" height="30" as="geometry">
            <mxRectangle width="30" height="30" as="alternateBounds" />
          </mxGeometry>
        </mxCell>
        <mxCell id="jcKHcT5dP_6uD75084We-140" value="id int_unsigned NOT NULL AUTO_INCREMENT" style="shape=partialRectangle;overflow=hidden;connectable=0;fillColor=none;align=left;strokeColor=inherit;top=0;left=0;bottom=0;right=0;spacingLeft=6;fontStyle=5;" vertex="1" parent="jcKHcT5dP_6uD75084We-138">
          <mxGeometry x="30" width="280" height="30" as="geometry">
            <mxRectangle width="280" height="30" as="alternateBounds" />
          </mxGeometry>
        </mxCell>
        <mxCell id="jcKHcT5dP_6uD75084We-141" value="" style="shape=tableRow;horizontal=0;startSize=0;swimlaneHead=0;swimlaneBody=0;fillColor=none;collapsible=0;dropTarget=0;points=[[0,0.5],[1,0.5]];portConstraint=eastwest;strokeColor=inherit;top=0;left=0;right=0;bottom=0;" vertex="1" parent="jcKHcT5dP_6uD75084We-137">
          <mxGeometry y="60" width="310" height="30" as="geometry" />
        </mxCell>
        <mxCell id="jcKHcT5dP_6uD75084We-142" value="UK" style="shape=partialRectangle;overflow=hidden;connectable=0;fillColor=none;strokeColor=inherit;top=0;left=0;bottom=0;right=0;" vertex="1" parent="jcKHcT5dP_6uD75084We-141">
          <mxGeometry width="30" height="30" as="geometry">
            <mxRectangle width="30" height="30" as="alternateBounds" />
          </mxGeometry>
        </mxCell>
        <mxCell id="jcKHcT5dP_6uD75084We-143" value="e_mail varchar(30) NOT NULL UNIQUE" style="shape=partialRectangle;overflow=hidden;connectable=0;fillColor=none;align=left;strokeColor=inherit;top=0;left=0;bottom=0;right=0;spacingLeft=6;" vertex="1" parent="jcKHcT5dP_6uD75084We-141">
          <mxGeometry x="30" width="280" height="30" as="geometry">
            <mxRectangle width="280" height="30" as="alternateBounds" />
          </mxGeometry>
        </mxCell>
        <mxCell id="jcKHcT5dP_6uD75084We-144" value="" style="shape=tableRow;horizontal=0;startSize=0;swimlaneHead=0;swimlaneBody=0;fillColor=none;collapsible=0;dropTarget=0;points=[[0,0.5],[1,0.5]];portConstraint=eastwest;strokeColor=inherit;top=0;left=0;right=0;bottom=0;" vertex="1" parent="jcKHcT5dP_6uD75084We-137">
          <mxGeometry y="90" width="310" height="30" as="geometry" />
        </mxCell>
        <mxCell id="jcKHcT5dP_6uD75084We-145" value="" style="shape=partialRectangle;overflow=hidden;connectable=0;fillColor=none;strokeColor=inherit;top=0;left=0;bottom=0;right=0;" vertex="1" parent="jcKHcT5dP_6uD75084We-144">
          <mxGeometry width="30" height="30" as="geometry">
            <mxRectangle width="30" height="30" as="alternateBounds" />
          </mxGeometry>
        </mxCell>
        <mxCell id="jcKHcT5dP_6uD75084We-146" value="password varchar(30) NOT NULL " style="shape=partialRectangle;overflow=hidden;connectable=0;fillColor=none;align=left;strokeColor=inherit;top=0;left=0;bottom=0;right=0;spacingLeft=6;" vertex="1" parent="jcKHcT5dP_6uD75084We-144">
          <mxGeometry x="30" width="280" height="30" as="geometry">
            <mxRectangle width="280" height="30" as="alternateBounds" />
          </mxGeometry>
        </mxCell>
        <mxCell id="jcKHcT5dP_6uD75084We-147" value="" style="shape=tableRow;horizontal=0;startSize=0;swimlaneHead=0;swimlaneBody=0;fillColor=none;collapsible=0;dropTarget=0;points=[[0,0.5],[1,0.5]];portConstraint=eastwest;strokeColor=inherit;top=0;left=0;right=0;bottom=0;" vertex="1" parent="jcKHcT5dP_6uD75084We-137">
          <mxGeometry y="120" width="310" height="30" as="geometry" />
        </mxCell>
        <mxCell id="jcKHcT5dP_6uD75084We-148" value="UK" style="shape=partialRectangle;overflow=hidden;connectable=0;fillColor=none;strokeColor=inherit;top=0;left=0;bottom=0;right=0;" vertex="1" parent="jcKHcT5dP_6uD75084We-147">
          <mxGeometry width="30" height="30" as="geometry">
            <mxRectangle width="30" height="30" as="alternateBounds" />
          </mxGeometry>
        </mxCell>
        <mxCell id="jcKHcT5dP_6uD75084We-149" value="nickname varchar(30) NOT NULL UNIQUE" style="shape=partialRectangle;overflow=hidden;connectable=0;fillColor=none;align=left;strokeColor=inherit;top=0;left=0;bottom=0;right=0;spacingLeft=6;" vertex="1" parent="jcKHcT5dP_6uD75084We-147">
          <mxGeometry x="30" width="280" height="30" as="geometry">
            <mxRectangle width="280" height="30" as="alternateBounds" />
          </mxGeometry>
        </mxCell>
        <mxCell id="jcKHcT5dP_6uD75084We-150" value="" style="shape=tableRow;horizontal=0;startSize=0;swimlaneHead=0;swimlaneBody=0;fillColor=none;collapsible=0;dropTarget=0;points=[[0,0.5],[1,0.5]];portConstraint=eastwest;strokeColor=inherit;top=0;left=0;right=0;bottom=0;" vertex="1" parent="jcKHcT5dP_6uD75084We-137">
          <mxGeometry y="150" width="310" height="30" as="geometry" />
        </mxCell>
        <mxCell id="jcKHcT5dP_6uD75084We-151" value="" style="shape=partialRectangle;overflow=hidden;connectable=0;fillColor=none;strokeColor=inherit;top=0;left=0;bottom=0;right=0;" vertex="1" parent="jcKHcT5dP_6uD75084We-150">
          <mxGeometry width="30" height="30" as="geometry">
            <mxRectangle width="30" height="30" as="alternateBounds" />
          </mxGeometry>
        </mxCell>
        <mxCell id="jcKHcT5dP_6uD75084We-152" value="created_at datetime NOT NULL" style="shape=partialRectangle;overflow=hidden;connectable=0;fillColor=none;align=left;strokeColor=inherit;top=0;left=0;bottom=0;right=0;spacingLeft=6;" vertex="1" parent="jcKHcT5dP_6uD75084We-150">
          <mxGeometry x="30" width="280" height="30" as="geometry">
            <mxRectangle width="280" height="30" as="alternateBounds" />
          </mxGeometry>
        </mxCell>
        <mxCell id="jcKHcT5dP_6uD75084We-153" value="" style="shape=tableRow;horizontal=0;startSize=0;swimlaneHead=0;swimlaneBody=0;fillColor=none;collapsible=0;dropTarget=0;points=[[0,0.5],[1,0.5]];portConstraint=eastwest;strokeColor=inherit;top=0;left=0;right=0;bottom=0;" vertex="1" parent="jcKHcT5dP_6uD75084We-137">
          <mxGeometry y="180" width="310" height="30" as="geometry" />
        </mxCell>
        <mxCell id="jcKHcT5dP_6uD75084We-154" value="" style="shape=partialRectangle;overflow=hidden;connectable=0;fillColor=none;strokeColor=inherit;top=0;left=0;bottom=0;right=0;" vertex="1" parent="jcKHcT5dP_6uD75084We-153">
          <mxGeometry width="30" height="30" as="geometry">
            <mxRectangle width="30" height="30" as="alternateBounds" />
          </mxGeometry>
        </mxCell>
        <mxCell id="jcKHcT5dP_6uD75084We-155" value="modified_at datetime NOT NULL" style="shape=partialRectangle;overflow=hidden;connectable=0;fillColor=none;align=left;strokeColor=inherit;top=0;left=0;bottom=0;right=0;spacingLeft=6;" vertex="1" parent="jcKHcT5dP_6uD75084We-153">
          <mxGeometry x="30" width="280" height="30" as="geometry">
            <mxRectangle width="280" height="30" as="alternateBounds" />
          </mxGeometry>
        </mxCell>
        <mxCell id="jcKHcT5dP_6uD75084We-156" value="" style="shape=tableRow;horizontal=0;startSize=0;swimlaneHead=0;swimlaneBody=0;fillColor=none;collapsible=0;dropTarget=0;points=[[0,0.5],[1,0.5]];portConstraint=eastwest;strokeColor=inherit;top=0;left=0;right=0;bottom=0;" vertex="1" parent="jcKHcT5dP_6uD75084We-137">
          <mxGeometry y="210" width="310" height="30" as="geometry" />
        </mxCell>
        <mxCell id="jcKHcT5dP_6uD75084We-157" value="" style="shape=partialRectangle;overflow=hidden;connectable=0;fillColor=none;strokeColor=inherit;top=0;left=0;bottom=0;right=0;" vertex="1" parent="jcKHcT5dP_6uD75084We-156">
          <mxGeometry width="30" height="30" as="geometry">
            <mxRectangle width="30" height="30" as="alternateBounds" />
          </mxGeometry>
        </mxCell>
        <mxCell id="jcKHcT5dP_6uD75084We-158" value="deleted_at datetime " style="shape=partialRectangle;overflow=hidden;connectable=0;fillColor=none;align=left;strokeColor=inherit;top=0;left=0;bottom=0;right=0;spacingLeft=6;" vertex="1" parent="jcKHcT5dP_6uD75084We-156">
          <mxGeometry x="30" width="280" height="30" as="geometry">
            <mxRectangle width="280" height="30" as="alternateBounds" />
          </mxGeometry>
        </mxCell>
        <mxCell id="jcKHcT5dP_6uD75084We-159" value="user_makes" style="shape=table;startSize=30;container=1;collapsible=1;childLayout=tableLayout;fixedRows=1;rowLines=0;fontStyle=1;align=center;resizeLast=1;" vertex="1" parent="1">
          <mxGeometry x="-1650" y="-2690" width="310" height="270" as="geometry" />
        </mxCell>
        <mxCell id="jcKHcT5dP_6uD75084We-160" value="" style="shape=tableRow;horizontal=0;startSize=0;swimlaneHead=0;swimlaneBody=0;fillColor=none;collapsible=0;dropTarget=0;points=[[0,0.5],[1,0.5]];portConstraint=eastwest;strokeColor=inherit;top=0;left=0;right=0;bottom=1;" vertex="1" parent="jcKHcT5dP_6uD75084We-159">
          <mxGeometry y="30" width="310" height="30" as="geometry" />
        </mxCell>
        <mxCell id="jcKHcT5dP_6uD75084We-161" value="PK" style="shape=partialRectangle;overflow=hidden;connectable=0;fillColor=none;strokeColor=inherit;top=0;left=0;bottom=0;right=0;fontStyle=1;" vertex="1" parent="jcKHcT5dP_6uD75084We-160">
          <mxGeometry width="30.000000000000227" height="30" as="geometry">
            <mxRectangle width="30.000000000000227" height="30" as="alternateBounds" />
          </mxGeometry>
        </mxCell>
        <mxCell id="jcKHcT5dP_6uD75084We-162" value="id int_unsigned NOT NULL AUTO_INCREMENT" style="shape=partialRectangle;overflow=hidden;connectable=0;fillColor=none;align=left;strokeColor=inherit;top=0;left=0;bottom=0;right=0;spacingLeft=6;fontStyle=5;" vertex="1" parent="jcKHcT5dP_6uD75084We-160">
          <mxGeometry x="30.000000000000227" width="279.9999999999998" height="30" as="geometry">
            <mxRectangle width="279.9999999999998" height="30" as="alternateBounds" />
          </mxGeometry>
        </mxCell>
        <mxCell id="jcKHcT5dP_6uD75084We-163" value="" style="shape=tableRow;horizontal=0;startSize=0;swimlaneHead=0;swimlaneBody=0;fillColor=none;collapsible=0;dropTarget=0;points=[[0,0.5],[1,0.5]];portConstraint=eastwest;strokeColor=inherit;top=0;left=0;right=0;bottom=0;" vertex="1" parent="jcKHcT5dP_6uD75084We-159">
          <mxGeometry y="60" width="310" height="30" as="geometry" />
        </mxCell>
        <mxCell id="jcKHcT5dP_6uD75084We-164" value="FK" style="shape=partialRectangle;overflow=hidden;connectable=0;fillColor=none;strokeColor=inherit;top=0;left=0;bottom=0;right=0;" vertex="1" parent="jcKHcT5dP_6uD75084We-163">
          <mxGeometry width="30.000000000000227" height="30" as="geometry">
            <mxRectangle width="30.000000000000227" height="30" as="alternateBounds" />
          </mxGeometry>
        </mxCell>
        <mxCell id="jcKHcT5dP_6uD75084We-165" value="user_id int unsigned NOT NULL" style="shape=partialRectangle;overflow=hidden;connectable=0;fillColor=none;align=left;strokeColor=inherit;top=0;left=0;bottom=0;right=0;spacingLeft=6;" vertex="1" parent="jcKHcT5dP_6uD75084We-163">
          <mxGeometry x="30.000000000000227" width="279.9999999999998" height="30" as="geometry">
            <mxRectangle width="279.9999999999998" height="30" as="alternateBounds" />
          </mxGeometry>
        </mxCell>
        <mxCell id="jcKHcT5dP_6uD75084We-166" value="" style="shape=tableRow;horizontal=0;startSize=0;swimlaneHead=0;swimlaneBody=0;fillColor=none;collapsible=0;dropTarget=0;points=[[0,0.5],[1,0.5]];portConstraint=eastwest;strokeColor=inherit;top=0;left=0;right=0;bottom=0;" vertex="1" parent="jcKHcT5dP_6uD75084We-159">
          <mxGeometry y="90" width="310" height="30" as="geometry" />
        </mxCell>
        <mxCell id="jcKHcT5dP_6uD75084We-167" value="FK" style="shape=partialRectangle;overflow=hidden;connectable=0;fillColor=none;strokeColor=inherit;top=0;left=0;bottom=0;right=0;" vertex="1" parent="jcKHcT5dP_6uD75084We-166">
          <mxGeometry width="30.000000000000227" height="30" as="geometry">
            <mxRectangle width="30.000000000000227" height="30" as="alternateBounds" />
          </mxGeometry>
        </mxCell>
        <mxCell id="jcKHcT5dP_6uD75084We-168" value="rooms_id int unsigned NOT NULL" style="shape=partialRectangle;overflow=hidden;connectable=0;fillColor=none;align=left;strokeColor=inherit;top=0;left=0;bottom=0;right=0;spacingLeft=6;" vertex="1" parent="jcKHcT5dP_6uD75084We-166">
          <mxGeometry x="30.000000000000227" width="279.9999999999998" height="30" as="geometry">
            <mxRectangle width="279.9999999999998" height="30" as="alternateBounds" />
          </mxGeometry>
        </mxCell>
        <mxCell id="jcKHcT5dP_6uD75084We-219" value="" style="shape=tableRow;horizontal=0;startSize=0;swimlaneHead=0;swimlaneBody=0;fillColor=none;collapsible=0;dropTarget=0;points=[[0,0.5],[1,0.5]];portConstraint=eastwest;strokeColor=inherit;top=0;left=0;right=0;bottom=0;" vertex="1" parent="jcKHcT5dP_6uD75084We-159">
          <mxGeometry y="120" width="310" height="30" as="geometry" />
        </mxCell>
        <mxCell id="jcKHcT5dP_6uD75084We-220" value="FK" style="shape=partialRectangle;overflow=hidden;connectable=0;fillColor=none;strokeColor=inherit;top=0;left=0;bottom=0;right=0;" vertex="1" parent="jcKHcT5dP_6uD75084We-219">
          <mxGeometry width="30.000000000000227" height="30" as="geometry">
            <mxRectangle width="30.000000000000227" height="30" as="alternateBounds" />
          </mxGeometry>
        </mxCell>
        <mxCell id="jcKHcT5dP_6uD75084We-221" value="recomments_id int unsigned NOT NULL" style="shape=partialRectangle;overflow=hidden;connectable=0;fillColor=none;align=left;strokeColor=inherit;top=0;left=0;bottom=0;right=0;spacingLeft=6;" vertex="1" parent="jcKHcT5dP_6uD75084We-219">
          <mxGeometry x="30.000000000000227" width="279.9999999999998" height="30" as="geometry">
            <mxRectangle width="279.9999999999998" height="30" as="alternateBounds" />
          </mxGeometry>
        </mxCell>
        <mxCell id="jcKHcT5dP_6uD75084We-222" value="" style="shape=tableRow;horizontal=0;startSize=0;swimlaneHead=0;swimlaneBody=0;fillColor=none;collapsible=0;dropTarget=0;points=[[0,0.5],[1,0.5]];portConstraint=eastwest;strokeColor=inherit;top=0;left=0;right=0;bottom=0;" vertex="1" parent="jcKHcT5dP_6uD75084We-159">
          <mxGeometry y="150" width="310" height="30" as="geometry" />
        </mxCell>
        <mxCell id="jcKHcT5dP_6uD75084We-223" value="FK" style="shape=partialRectangle;overflow=hidden;connectable=0;fillColor=none;strokeColor=inherit;top=0;left=0;bottom=0;right=0;" vertex="1" parent="jcKHcT5dP_6uD75084We-222">
          <mxGeometry width="30.000000000000227" height="30" as="geometry">
            <mxRectangle width="30.000000000000227" height="30" as="alternateBounds" />
          </mxGeometry>
        </mxCell>
        <mxCell id="jcKHcT5dP_6uD75084We-224" value="replys_id int unsigned NOT NULL" style="shape=partialRectangle;overflow=hidden;connectable=0;fillColor=none;align=left;strokeColor=inherit;top=0;left=0;bottom=0;right=0;spacingLeft=6;" vertex="1" parent="jcKHcT5dP_6uD75084We-222">
          <mxGeometry x="30.000000000000227" width="279.9999999999998" height="30" as="geometry">
            <mxRectangle width="279.9999999999998" height="30" as="alternateBounds" />
          </mxGeometry>
        </mxCell>
        <mxCell id="jcKHcT5dP_6uD75084We-172" value="" style="shape=tableRow;horizontal=0;startSize=0;swimlaneHead=0;swimlaneBody=0;fillColor=none;collapsible=0;dropTarget=0;points=[[0,0.5],[1,0.5]];portConstraint=eastwest;strokeColor=inherit;top=0;left=0;right=0;bottom=0;" vertex="1" parent="jcKHcT5dP_6uD75084We-159">
          <mxGeometry y="180" width="310" height="30" as="geometry" />
        </mxCell>
        <mxCell id="jcKHcT5dP_6uD75084We-173" value="" style="shape=partialRectangle;overflow=hidden;connectable=0;fillColor=none;strokeColor=inherit;top=0;left=0;bottom=0;right=0;" vertex="1" parent="jcKHcT5dP_6uD75084We-172">
          <mxGeometry width="30.000000000000227" height="30" as="geometry">
            <mxRectangle width="30.000000000000227" height="30" as="alternateBounds" />
          </mxGeometry>
        </mxCell>
        <mxCell id="jcKHcT5dP_6uD75084We-174" value="created_at datetime NOT NULL" style="shape=partialRectangle;overflow=hidden;connectable=0;fillColor=none;align=left;strokeColor=inherit;top=0;left=0;bottom=0;right=0;spacingLeft=6;" vertex="1" parent="jcKHcT5dP_6uD75084We-172">
          <mxGeometry x="30.000000000000227" width="279.9999999999998" height="30" as="geometry">
            <mxRectangle width="279.9999999999998" height="30" as="alternateBounds" />
          </mxGeometry>
        </mxCell>
        <mxCell id="jcKHcT5dP_6uD75084We-175" value="" style="shape=tableRow;horizontal=0;startSize=0;swimlaneHead=0;swimlaneBody=0;fillColor=none;collapsible=0;dropTarget=0;points=[[0,0.5],[1,0.5]];portConstraint=eastwest;strokeColor=inherit;top=0;left=0;right=0;bottom=0;" vertex="1" parent="jcKHcT5dP_6uD75084We-159">
          <mxGeometry y="210" width="310" height="30" as="geometry" />
        </mxCell>
        <mxCell id="jcKHcT5dP_6uD75084We-176" value="" style="shape=partialRectangle;overflow=hidden;connectable=0;fillColor=none;strokeColor=inherit;top=0;left=0;bottom=0;right=0;" vertex="1" parent="jcKHcT5dP_6uD75084We-175">
          <mxGeometry width="30.000000000000227" height="30" as="geometry">
            <mxRectangle width="30.000000000000227" height="30" as="alternateBounds" />
          </mxGeometry>
        </mxCell>
        <mxCell id="jcKHcT5dP_6uD75084We-177" value="modified_at datetime NOT NULL" style="shape=partialRectangle;overflow=hidden;connectable=0;fillColor=none;align=left;strokeColor=inherit;top=0;left=0;bottom=0;right=0;spacingLeft=6;" vertex="1" parent="jcKHcT5dP_6uD75084We-175">
          <mxGeometry x="30.000000000000227" width="279.9999999999998" height="30" as="geometry">
            <mxRectangle width="279.9999999999998" height="30" as="alternateBounds" />
          </mxGeometry>
        </mxCell>
        <mxCell id="jcKHcT5dP_6uD75084We-178" value="" style="shape=tableRow;horizontal=0;startSize=0;swimlaneHead=0;swimlaneBody=0;fillColor=none;collapsible=0;dropTarget=0;points=[[0,0.5],[1,0.5]];portConstraint=eastwest;strokeColor=inherit;top=0;left=0;right=0;bottom=0;" vertex="1" parent="jcKHcT5dP_6uD75084We-159">
          <mxGeometry y="240" width="310" height="30" as="geometry" />
        </mxCell>
        <mxCell id="jcKHcT5dP_6uD75084We-179" value="" style="shape=partialRectangle;overflow=hidden;connectable=0;fillColor=none;strokeColor=inherit;top=0;left=0;bottom=0;right=0;" vertex="1" parent="jcKHcT5dP_6uD75084We-178">
          <mxGeometry width="30.000000000000227" height="30" as="geometry">
            <mxRectangle width="30.000000000000227" height="30" as="alternateBounds" />
          </mxGeometry>
        </mxCell>
        <mxCell id="jcKHcT5dP_6uD75084We-180" value="deleted_at datetime " style="shape=partialRectangle;overflow=hidden;connectable=0;fillColor=none;align=left;strokeColor=inherit;top=0;left=0;bottom=0;right=0;spacingLeft=6;" vertex="1" parent="jcKHcT5dP_6uD75084We-178">
          <mxGeometry x="30.000000000000227" width="279.9999999999998" height="30" as="geometry">
            <mxRectangle width="279.9999999999998" height="30" as="alternateBounds" />
          </mxGeometry>
        </mxCell>
        <mxCell id="jcKHcT5dP_6uD75084We-226" value="" style="edgeStyle=entityRelationEdgeStyle;fontSize=12;html=1;endArrow=ERmandOne;startArrow=ERmandOne;rounded=0;entryX=1;entryY=0.5;entryDx=0;entryDy=0;" edge="1" parent="1" source="jcKHcT5dP_6uD75084We-2" target="jcKHcT5dP_6uD75084We-163">
          <mxGeometry width="100" height="100" relative="1" as="geometry">
            <mxPoint x="-830" y="-2540" as="sourcePoint" />
            <mxPoint x="-730" y="-2640" as="targetPoint" />
          </mxGeometry>
        </mxCell>
        <mxCell id="jcKHcT5dP_6uD75084We-60" value="rooms" style="shape=table;startSize=30;container=1;collapsible=1;childLayout=tableLayout;fixedRows=1;rowLines=0;fontStyle=1;align=center;resizeLast=1;" vertex="1" parent="1">
          <mxGeometry x="-860" y="-3270" width="310" height="230" as="geometry" />
        </mxCell>
        <mxCell id="jcKHcT5dP_6uD75084We-61" value="" style="shape=tableRow;horizontal=0;startSize=0;swimlaneHead=0;swimlaneBody=0;fillColor=none;collapsible=0;dropTarget=0;points=[[0,0.5],[1,0.5]];portConstraint=eastwest;strokeColor=inherit;top=0;left=0;right=0;bottom=1;" vertex="1" parent="jcKHcT5dP_6uD75084We-60">
          <mxGeometry y="30" width="310" height="20" as="geometry" />
        </mxCell>
        <mxCell id="jcKHcT5dP_6uD75084We-62" value="PK" style="shape=partialRectangle;overflow=hidden;connectable=0;fillColor=none;strokeColor=inherit;top=0;left=0;bottom=0;right=0;fontStyle=1;" vertex="1" parent="jcKHcT5dP_6uD75084We-61">
          <mxGeometry width="30.000000000000227" height="20" as="geometry">
            <mxRectangle width="30.000000000000227" height="20" as="alternateBounds" />
          </mxGeometry>
        </mxCell>
        <mxCell id="jcKHcT5dP_6uD75084We-63" value="id int_unsigned NOT NULL AUTO_INCREMENT" style="shape=partialRectangle;overflow=hidden;connectable=0;fillColor=none;align=left;strokeColor=inherit;top=0;left=0;bottom=0;right=0;spacingLeft=6;fontStyle=5;" vertex="1" parent="jcKHcT5dP_6uD75084We-61">
          <mxGeometry x="30.000000000000227" width="279.9999999999998" height="20" as="geometry">
            <mxRectangle width="279.9999999999998" height="20" as="alternateBounds" />
          </mxGeometry>
        </mxCell>
        <mxCell id="jcKHcT5dP_6uD75084We-64" value="" style="shape=tableRow;horizontal=0;startSize=0;swimlaneHead=0;swimlaneBody=0;fillColor=none;collapsible=0;dropTarget=0;points=[[0,0.5],[1,0.5]];portConstraint=eastwest;strokeColor=inherit;top=0;left=0;right=0;bottom=0;" vertex="1" parent="jcKHcT5dP_6uD75084We-60">
          <mxGeometry y="50" width="310" height="30" as="geometry" />
        </mxCell>
        <mxCell id="jcKHcT5dP_6uD75084We-65" value="FK" style="shape=partialRectangle;overflow=hidden;connectable=0;fillColor=none;strokeColor=inherit;top=0;left=0;bottom=0;right=0;" vertex="1" parent="jcKHcT5dP_6uD75084We-64">
          <mxGeometry width="30.000000000000227" height="30" as="geometry">
            <mxRectangle width="30.000000000000227" height="30" as="alternateBounds" />
          </mxGeometry>
        </mxCell>
        <mxCell id="jcKHcT5dP_6uD75084We-66" value="user_id int unsigned NOT NULL" style="shape=partialRectangle;overflow=hidden;connectable=0;fillColor=none;align=left;strokeColor=inherit;top=0;left=0;bottom=0;right=0;spacingLeft=6;" vertex="1" parent="jcKHcT5dP_6uD75084We-64">
          <mxGeometry x="30.000000000000227" width="279.9999999999998" height="30" as="geometry">
            <mxRectangle width="279.9999999999998" height="30" as="alternateBounds" />
          </mxGeometry>
        </mxCell>
        <mxCell id="jcKHcT5dP_6uD75084We-67" value="" style="shape=tableRow;horizontal=0;startSize=0;swimlaneHead=0;swimlaneBody=0;fillColor=none;collapsible=0;dropTarget=0;points=[[0,0.5],[1,0.5]];portConstraint=eastwest;strokeColor=inherit;top=0;left=0;right=0;bottom=0;" vertex="1" parent="jcKHcT5dP_6uD75084We-60">
          <mxGeometry y="80" width="310" height="30" as="geometry" />
        </mxCell>
        <mxCell id="jcKHcT5dP_6uD75084We-68" value="" style="shape=partialRectangle;overflow=hidden;connectable=0;fillColor=none;strokeColor=inherit;top=0;left=0;bottom=0;right=0;" vertex="1" parent="jcKHcT5dP_6uD75084We-67">
          <mxGeometry width="30.000000000000227" height="30" as="geometry">
            <mxRectangle width="30.000000000000227" height="30" as="alternateBounds" />
          </mxGeometry>
        </mxCell>
        <mxCell id="jcKHcT5dP_6uD75084We-69" value="title varchar(50) NOT NULL" style="shape=partialRectangle;overflow=hidden;connectable=0;fillColor=none;align=left;strokeColor=inherit;top=0;left=0;bottom=0;right=0;spacingLeft=6;" vertex="1" parent="jcKHcT5dP_6uD75084We-67">
          <mxGeometry x="30.000000000000227" width="279.9999999999998" height="30" as="geometry">
            <mxRectangle width="279.9999999999998" height="30" as="alternateBounds" />
          </mxGeometry>
        </mxCell>
        <mxCell id="jcKHcT5dP_6uD75084We-70" value="" style="shape=tableRow;horizontal=0;startSize=0;swimlaneHead=0;swimlaneBody=0;fillColor=none;collapsible=0;dropTarget=0;points=[[0,0.5],[1,0.5]];portConstraint=eastwest;strokeColor=inherit;top=0;left=0;right=0;bottom=0;" vertex="1" parent="jcKHcT5dP_6uD75084We-60">
          <mxGeometry y="110" width="310" height="30" as="geometry" />
        </mxCell>
        <mxCell id="jcKHcT5dP_6uD75084We-71" value="" style="shape=partialRectangle;overflow=hidden;connectable=0;fillColor=none;strokeColor=inherit;top=0;left=0;bottom=0;right=0;" vertex="1" parent="jcKHcT5dP_6uD75084We-70">
          <mxGeometry width="30.000000000000227" height="30" as="geometry">
            <mxRectangle width="30.000000000000227" height="30" as="alternateBounds" />
          </mxGeometry>
        </mxCell>
        <mxCell id="jcKHcT5dP_6uD75084We-72" value="tag SET NOT NULL" style="shape=partialRectangle;overflow=hidden;connectable=0;fillColor=none;align=left;strokeColor=inherit;top=0;left=0;bottom=0;right=0;spacingLeft=6;" vertex="1" parent="jcKHcT5dP_6uD75084We-70">
          <mxGeometry x="30.000000000000227" width="279.9999999999998" height="30" as="geometry">
            <mxRectangle width="279.9999999999998" height="30" as="alternateBounds" />
          </mxGeometry>
        </mxCell>
        <mxCell id="jcKHcT5dP_6uD75084We-73" value="" style="shape=tableRow;horizontal=0;startSize=0;swimlaneHead=0;swimlaneBody=0;fillColor=none;collapsible=0;dropTarget=0;points=[[0,0.5],[1,0.5]];portConstraint=eastwest;strokeColor=inherit;top=0;left=0;right=0;bottom=0;" vertex="1" parent="jcKHcT5dP_6uD75084We-60">
          <mxGeometry y="140" width="310" height="30" as="geometry" />
        </mxCell>
        <mxCell id="jcKHcT5dP_6uD75084We-74" value="" style="shape=partialRectangle;overflow=hidden;connectable=0;fillColor=none;strokeColor=inherit;top=0;left=0;bottom=0;right=0;" vertex="1" parent="jcKHcT5dP_6uD75084We-73">
          <mxGeometry width="30.000000000000227" height="30" as="geometry">
            <mxRectangle width="30.000000000000227" height="30" as="alternateBounds" />
          </mxGeometry>
        </mxCell>
        <mxCell id="jcKHcT5dP_6uD75084We-75" value="created_at datetime NOT NULL" style="shape=partialRectangle;overflow=hidden;connectable=0;fillColor=none;align=left;strokeColor=inherit;top=0;left=0;bottom=0;right=0;spacingLeft=6;" vertex="1" parent="jcKHcT5dP_6uD75084We-73">
          <mxGeometry x="30.000000000000227" width="279.9999999999998" height="30" as="geometry">
            <mxRectangle width="279.9999999999998" height="30" as="alternateBounds" />
          </mxGeometry>
        </mxCell>
        <mxCell id="jcKHcT5dP_6uD75084We-76" value="" style="shape=tableRow;horizontal=0;startSize=0;swimlaneHead=0;swimlaneBody=0;fillColor=none;collapsible=0;dropTarget=0;points=[[0,0.5],[1,0.5]];portConstraint=eastwest;strokeColor=inherit;top=0;left=0;right=0;bottom=0;" vertex="1" parent="jcKHcT5dP_6uD75084We-60">
          <mxGeometry y="170" width="310" height="30" as="geometry" />
        </mxCell>
        <mxCell id="jcKHcT5dP_6uD75084We-77" value="" style="shape=partialRectangle;overflow=hidden;connectable=0;fillColor=none;strokeColor=inherit;top=0;left=0;bottom=0;right=0;" vertex="1" parent="jcKHcT5dP_6uD75084We-76">
          <mxGeometry width="30.000000000000227" height="30" as="geometry">
            <mxRectangle width="30.000000000000227" height="30" as="alternateBounds" />
          </mxGeometry>
        </mxCell>
        <mxCell id="jcKHcT5dP_6uD75084We-78" value="modified_at datetime NOT NULL" style="shape=partialRectangle;overflow=hidden;connectable=0;fillColor=none;align=left;strokeColor=inherit;top=0;left=0;bottom=0;right=0;spacingLeft=6;" vertex="1" parent="jcKHcT5dP_6uD75084We-76">
          <mxGeometry x="30.000000000000227" width="279.9999999999998" height="30" as="geometry">
            <mxRectangle width="279.9999999999998" height="30" as="alternateBounds" />
          </mxGeometry>
        </mxCell>
        <mxCell id="jcKHcT5dP_6uD75084We-79" value="" style="shape=tableRow;horizontal=0;startSize=0;swimlaneHead=0;swimlaneBody=0;fillColor=none;collapsible=0;dropTarget=0;points=[[0,0.5],[1,0.5]];portConstraint=eastwest;strokeColor=inherit;top=0;left=0;right=0;bottom=0;" vertex="1" parent="jcKHcT5dP_6uD75084We-60">
          <mxGeometry y="200" width="310" height="30" as="geometry" />
        </mxCell>
        <mxCell id="jcKHcT5dP_6uD75084We-80" value="" style="shape=partialRectangle;overflow=hidden;connectable=0;fillColor=none;strokeColor=inherit;top=0;left=0;bottom=0;right=0;" vertex="1" parent="jcKHcT5dP_6uD75084We-79">
          <mxGeometry width="30.000000000000227" height="30" as="geometry">
            <mxRectangle width="30.000000000000227" height="30" as="alternateBounds" />
          </mxGeometry>
        </mxCell>
        <mxCell id="jcKHcT5dP_6uD75084We-81" value="deleted_at datetime " style="shape=partialRectangle;overflow=hidden;connectable=0;fillColor=none;align=left;strokeColor=inherit;top=0;left=0;bottom=0;right=0;spacingLeft=6;" vertex="1" parent="jcKHcT5dP_6uD75084We-79">
          <mxGeometry x="30.000000000000227" width="279.9999999999998" height="30" as="geometry">
            <mxRectangle width="279.9999999999998" height="30" as="alternateBounds" />
          </mxGeometry>
        </mxCell>
        <mxCell id="jcKHcT5dP_6uD75084We-234" value="" style="edgeStyle=entityRelationEdgeStyle;fontSize=12;html=1;endArrow=ERoneToMany;startArrow=ERzeroToMany;rounded=0;entryX=0.999;entryY=0.112;entryDx=0;entryDy=0;entryPerimeter=0;exitX=0;exitY=0.5;exitDx=0;exitDy=0;" edge="1" parent="1" source="jcKHcT5dP_6uD75084We-64" target="jcKHcT5dP_6uD75084We-2">
          <mxGeometry width="100" height="100" relative="1" as="geometry">
            <mxPoint x="-1050" y="-3050" as="sourcePoint" />
            <mxPoint x="-950" y="-3150" as="targetPoint" />
          </mxGeometry>
        </mxCell>
        <mxCell id="jcKHcT5dP_6uD75084We-235" value="" style="edgeStyle=entityRelationEdgeStyle;fontSize=12;html=1;endArrow=ERoneToMany;startArrow=ERzeroToMany;rounded=0;exitX=0;exitY=0.5;exitDx=0;exitDy=0;entryX=1.004;entryY=0.361;entryDx=0;entryDy=0;entryPerimeter=0;" edge="1" parent="1" source="jcKHcT5dP_6uD75084We-87" target="jcKHcT5dP_6uD75084We-2">
          <mxGeometry width="100" height="100" relative="1" as="geometry">
            <mxPoint x="-1050" y="-2700" as="sourcePoint" />
            <mxPoint x="-950" y="-2800" as="targetPoint" />
          </mxGeometry>
        </mxCell>
        <mxCell id="jcKHcT5dP_6uD75084We-237" value="" style="edgeStyle=entityRelationEdgeStyle;fontSize=12;html=1;endArrow=ERoneToMany;startArrow=ERzeroToMany;rounded=0;entryX=1;entryY=0.5;entryDx=0;entryDy=0;exitX=0;exitY=0.5;exitDx=0;exitDy=0;" edge="1" parent="1" source="jcKHcT5dP_6uD75084We-109" target="jcKHcT5dP_6uD75084We-222">
          <mxGeometry width="100" height="100" relative="1" as="geometry">
            <mxPoint x="-1050" y="-2700" as="sourcePoint" />
            <mxPoint x="-950" y="-2800" as="targetPoint" />
            <Array as="points">
              <mxPoint x="-630" y="-2630" />
            </Array>
          </mxGeometry>
        </mxCell>
        <mxCell id="jcKHcT5dP_6uD75084We-238" value="" style="edgeStyle=entityRelationEdgeStyle;fontSize=12;html=1;endArrow=ERoneToMany;startArrow=ERzeroToMany;rounded=0;exitX=0;exitY=0.5;exitDx=0;exitDy=0;entryX=1.004;entryY=0.73;entryDx=0;entryDy=0;entryPerimeter=0;" edge="1" parent="1" source="jcKHcT5dP_6uD75084We-112" target="jcKHcT5dP_6uD75084We-2">
          <mxGeometry width="100" height="100" relative="1" as="geometry">
            <mxPoint x="-1050" y="-2700" as="sourcePoint" />
            <mxPoint x="-950" y="-2800" as="targetPoint" />
          </mxGeometry>
        </mxCell>
        <mxCell id="jcKHcT5dP_6uD75084We-239" value="" style="edgeStyle=entityRelationEdgeStyle;fontSize=12;html=1;endArrow=ERoneToMany;startArrow=ERzeroToMany;rounded=0;exitX=0;exitY=0.5;exitDx=0;exitDy=0;entryX=1;entryY=0.5;entryDx=0;entryDy=0;" edge="1" parent="1" source="jcKHcT5dP_6uD75084We-84" target="jcKHcT5dP_6uD75084We-219">
          <mxGeometry width="100" height="100" relative="1" as="geometry">
            <mxPoint x="-1050" y="-2700" as="sourcePoint" />
            <mxPoint x="-950" y="-2800" as="targetPoint" />
          </mxGeometry>
        </mxCell>
        <mxCell id="jcKHcT5dP_6uD75084We-240" value="" style="edgeStyle=entityRelationEdgeStyle;fontSize=12;html=1;endArrow=ERoneToMany;startArrow=ERzeroToMany;rounded=0;entryX=1;entryY=0.5;entryDx=0;entryDy=0;exitX=0;exitY=0.5;exitDx=0;exitDy=0;" edge="1" parent="1" source="jcKHcT5dP_6uD75084We-61" target="jcKHcT5dP_6uD75084We-166">
          <mxGeometry width="100" height="100" relative="1" as="geometry">
            <mxPoint x="-1050" y="-2790" as="sourcePoint" />
            <mxPoint x="-950" y="-2890" as="targetPoint" />
          </mxGeometry>
        </mxCell>
      </root>
    </mxGraphModel>
  </diagram>
</mxfile>
